# xmcd CD database file
#
# Track frame offsets:
#	150
#	15322
#	29662
#	45985
#
# Disc length: 1113 seconds
#
# Revision: 0
# Processed by: cddbd v1.5.1PL0 Copyright (c) Steve Scherf et al.
# Submitted via: CDex 1.51
#
DISCID=23045704
DTITLE=ART-SCHOOL - MISS WORLD
DYEAR=2001
DGENRE=Rock
TTITLE0=MISS WORLD
TTITLE1=1965
TTITLE2=ウィノナライダーアンドロイド
TTITLE3=ステート オブ グレース
EXTD=YEAR: 2001
EXTT0=
EXTT1=
EXTT2=
EXTT3=
PLAYORDER=
